<svg width="824" height="198" viewBox="0 0 824 198" fill="none" xmlns="http://www.w3.org/2000/svg">
<path d="M170.44 96.4562C170.98 97.2271 171.251 98.0749 171.251 98.9999C171.251 100.156 170.826 101.158 169.976 102.006C169.127 102.854 168.123 103.278 166.964 103.278H60.1517C58.9159 103.278 57.8733 102.854 57.0237 102.006C56.1742 101.158 55.7494 100.156 55.7494 98.9999C55.7494 98.0749 55.9811 97.2656 56.4445 96.5719L109.735 4.53757C110.353 3.45844 111.241 2.76471 112.399 2.45639C113.558 2.14807 114.639 2.30223 115.643 2.91887C116.416 3.38136 116.995 3.998 117.381 4.76881L170.44 96.4562ZM67.566 94.6063H159.434L113.558 15.2903L67.566 94.6063ZM10.4525 193.462C9.83467 194.541 8.9465 195.235 7.78801 195.543C6.62952 195.852 5.54827 195.698 4.54424 195.081C3.46299 194.464 2.7679 193.578 2.45896 192.422C2.15003 191.265 2.3045 190.186 2.92236 189.184L28.7566 144.555C29.1428 142.088 30.5716 140.855 33.043 140.855H193.957C196.428 140.855 197.857 142.088 198.243 144.555L224.078 189.184C224.696 190.186 224.85 191.265 224.541 192.422C224.232 193.578 223.576 194.464 222.572 195.081C221.49 195.698 220.371 195.852 219.212 195.543C218.054 195.235 217.165 194.541 216.548 193.462L191.177 149.526H35.9393L10.4525 193.462Z" fill="url(#paint0_linear_502_2562)"/>
<path fill-rule="evenodd" clip-rule="evenodd" d="M223.747 197.062L223.714 197.08C222.129 197.984 220.388 198.239 218.619 197.768C216.841 197.295 215.458 196.196 214.547 194.606V194.606L189.846 151.829H37.2673L12.4529 194.605C12.4518 194.607 12.4507 194.609 12.4495 194.611C11.5389 196.198 10.1571 197.296 8.38123 197.768C6.63596 198.233 4.91414 197.999 3.36943 197.062C1.79423 196.153 0.70374 194.78 0.23233 193.015C-0.233797 191.271 0.000857901 189.55 0.941857 188.007L26.5615 143.748C26.8558 142.324 27.4844 141.01 28.6112 140.038C29.8593 138.96 31.428 138.552 33.043 138.552H193.957C195.572 138.552 197.141 138.96 198.389 140.038C199.516 141.01 200.144 142.324 200.439 143.748L226.058 188.007C226.999 189.55 227.234 191.271 226.768 193.015C226.309 194.731 225.294 196.111 223.779 197.042L223.747 197.062ZM224.078 189.184L198.243 144.555C197.857 142.088 196.428 140.855 193.957 140.855H33.043C30.5716 140.855 29.1428 142.088 28.7566 144.555L2.92236 189.184C2.3045 190.186 2.15003 191.265 2.45896 192.422C2.7679 193.578 3.46299 194.464 4.54424 195.081C5.54827 195.698 6.62952 195.852 7.78801 195.543C8.9465 195.235 9.83467 194.541 10.4525 193.462L35.9393 149.526H191.177L216.548 193.462C217.165 194.541 218.054 195.235 219.212 195.543C220.371 195.852 221.49 195.698 222.572 195.081C223.576 194.464 224.232 193.578 224.541 192.422C224.85 191.265 224.696 190.186 224.078 189.184ZM172.389 95.2253C173.156 96.354 173.555 97.63 173.555 98.9999C173.555 100.792 172.869 102.373 171.605 103.635C170.341 104.896 168.758 105.58 166.964 105.58H60.1516C58.3249 105.58 56.6905 104.928 55.3949 103.635C54.1309 102.373 53.4448 100.792 53.4448 98.9999C53.4448 97.6988 53.7704 96.4585 54.4824 95.3624L107.734 3.39444L107.738 3.38889C108.648 1.80159 110.03 0.704333 111.806 0.231657C113.559 -0.234971 115.289 0.00264935 116.839 0.950872C117.943 1.61454 118.818 2.52622 119.407 3.67036L172.389 95.2253ZM170.44 96.4562C170.98 97.2271 171.251 98.0749 171.251 98.9999C171.251 100.156 170.826 101.158 169.976 102.006C169.127 102.854 168.123 103.278 166.964 103.278H60.1517C58.9159 103.278 57.8733 102.854 57.0237 102.006C56.1742 101.158 55.7494 100.156 55.7494 98.9999C55.7494 98.0749 55.9811 97.2656 56.4445 96.5719L109.735 4.53757C110.353 3.45844 111.241 2.76471 112.399 2.45639C113.558 2.14807 114.639 2.30223 115.643 2.91887C116.416 3.38136 116.995 3.998 117.381 4.76881L170.44 96.4562ZM159.434 94.6063L113.558 15.2903L67.566 94.6063H159.434ZM71.5643 92.304H155.441L113.555 19.8877L71.5643 92.304Z" fill="url(#paint1_linear_502_2562)"/>
<path d="M315.95 50.65H341.3L368.75 110.2H367.25L394.7 50.65H419.15V148H401.3V71.05H404L373.7 137.35H362.15L332 71.35H333.65V148H315.95V50.65ZM458.904 61.9C455.454 61.9 452.754 61 450.804 59.2C448.904 57.35 447.954 54.8 447.954 51.55C447.954 48.4 448.904 45.9 450.804 44.05C452.754 42.15 455.454 41.2 458.904 41.2C462.304 41.2 464.979 42.15 466.929 44.05C468.879 45.9 469.854 48.4 469.854 51.55C469.854 54.8 468.879 57.35 466.929 59.2C464.979 61 462.304 61.9 458.904 61.9ZM450.054 148V74.95H467.754V148H450.054ZM549.222 148V105.4C549.222 100 547.922 95.925 545.322 93.175C542.722 90.425 539.322 89.05 535.122 89.05C531.572 89.05 528.422 90.025 525.672 91.975C522.972 93.925 520.847 96.875 519.297 100.825C517.747 104.725 516.972 109.6 516.972 115.45H511.122C511.122 106 512.297 98.15 514.647 91.9C516.997 85.6 520.322 80.9 524.622 77.8C528.922 74.7 533.972 73.15 539.772 73.15C545.772 73.15 550.772 74.5 554.772 77.2C558.822 79.85 561.847 83.6 563.847 88.45C565.897 93.3 566.922 98.95 566.922 105.4V148H549.222ZM499.272 148V75.25H514.722L516.972 89.65V148H499.272ZM618.829 150.1C614.529 150.1 610.579 149.3 606.979 147.7C603.429 146.1 600.579 143.65 598.429 140.35C596.329 137.05 595.279 132.85 595.279 127.75V55.9H612.979V127.15C612.979 133.15 615.829 136.15 621.529 136.15C623.279 136.15 625.029 135.95 626.779 135.55C628.529 135.15 630.529 134.55 632.779 133.75L635.329 146.2C632.529 147.3 629.804 148.225 627.154 148.975C624.504 149.725 621.729 150.1 618.829 150.1ZM585.079 86.95V75.25H632.779V86.95H585.079ZM701.259 148L699.009 130.3V101.05C699.009 95.95 697.959 92.175 695.859 89.725C693.809 87.275 690.309 86.05 685.359 86.05C682.509 86.05 680.034 86.475 677.934 87.325C675.834 88.175 674.209 89.4 673.059 91C671.959 92.55 671.409 94.45 671.409 96.7H652.059C652.059 91.2 653.384 86.725 656.034 83.275C658.684 79.775 662.484 77.225 667.434 75.625C672.434 73.975 678.409 73.15 685.359 73.15C691.659 73.15 697.159 74.175 701.859 76.225C706.559 78.225 710.209 81.325 712.809 85.525C715.409 89.725 716.709 95.1 716.709 101.65V148H701.259ZM677.409 150.1C671.159 150.1 665.934 149.025 661.734 146.875C657.584 144.675 654.459 141.8 652.359 138.25C650.259 134.7 649.209 130.85 649.209 126.7C649.209 122.1 650.409 118.25 652.809 115.15C655.259 112 658.709 109.65 663.159 108.1C667.609 106.5 672.859 105.7 678.909 105.7C682.859 105.7 686.584 106 690.084 106.6C693.634 107.2 697.159 108 700.659 109V119.35C697.909 118.45 694.909 117.75 691.659 117.25C688.409 116.75 685.359 116.5 682.509 116.5C678.309 116.5 674.859 117.275 672.159 118.825C669.459 120.375 668.109 123 668.109 126.7C668.109 129.4 669.209 131.725 671.409 133.675C673.609 135.625 677.109 136.6 681.909 136.6C685.559 136.6 688.659 135.8 691.209 134.2C693.759 132.6 695.684 130.6 696.984 128.2C698.334 125.8 699.009 123.4 699.009 121H703.209C703.209 126.25 702.234 131.1 700.284 135.55C698.334 139.95 695.434 143.475 691.584 146.125C687.784 148.775 683.059 150.1 677.409 150.1ZM744.153 148V45.1H761.853V148H744.153ZM791.356 148V45.1H809.056V148H791.356Z" fill="black"/>
<defs>
<linearGradient id="paint0_linear_502_2562" x1="113.5" y1="0" x2="226.982" y2="198.011" gradientUnits="userSpaceOnUse">
<stop/>
<stop offset="1" stop-color="#6726E9"/>
</linearGradient>
<linearGradient id="paint1_linear_502_2562" x1="113.5" y1="0" x2="226.982" y2="198.011" gradientUnits="userSpaceOnUse">
<stop/>
<stop offset="1" stop-color="#6726E9"/>
</linearGradient>
</defs>
</svg>
