<svg width="348" height="290" viewBox="0 0 348 290" fill="none" xmlns="http://www.w3.org/2000/svg">
<path d="M209.868 59.9198C210.204 60.3986 210.372 60.9253 210.372 61.4999C210.372 62.2182 210.108 62.8407 209.58 63.3674C209.052 63.8941 208.429 64.1575 207.709 64.1575H141.363C140.595 64.1575 139.948 63.8941 139.42 63.3674C138.892 62.8407 138.628 62.2182 138.628 61.4999C138.628 60.9253 138.772 60.4226 139.06 59.9916L172.161 2.81879C172.545 2.14842 173.097 1.71747 173.816 1.52594C174.536 1.33441 175.208 1.43017 175.831 1.81324C176.311 2.10054 176.671 2.48361 176.911 2.96244L209.868 59.9198ZM145.968 58.7706H203.032L174.536 9.49853L145.968 58.7706ZM110.493 120.181C110.109 120.851 109.557 121.282 108.837 121.474C108.118 121.665 107.446 121.57 106.823 121.187C106.151 120.804 105.719 120.253 105.527 119.535C105.335 118.816 105.431 118.146 105.815 117.524L121.862 89.799C122.102 88.2668 122.989 87.5006 124.525 87.5006H224.475C226.011 87.5006 226.898 88.2668 227.138 89.799L243.185 117.524C243.569 118.146 243.665 118.816 243.473 119.535C243.281 120.253 242.873 120.804 242.249 121.187C241.578 121.57 240.882 121.665 240.163 121.474C239.443 121.282 238.891 120.851 238.507 120.181L222.748 92.8875H126.324L110.493 120.181Z" fill="url(#paint0_linear_502_2557)"/>
<path fill-rule="evenodd" clip-rule="evenodd" d="M242.979 122.417L242.959 122.429C241.974 122.99 240.893 123.148 239.794 122.856C238.69 122.562 237.831 121.879 237.265 120.892V120.892L221.922 94.3178H127.148L111.735 120.891C111.734 120.892 111.734 120.894 111.733 120.895C111.167 121.881 110.309 122.562 109.206 122.856C108.122 123.145 107.052 123 106.093 122.417C105.114 121.853 104.437 121 104.144 119.904C103.855 118.82 104.001 117.751 104.585 116.792L120.499 89.2979C120.681 88.4133 121.072 87.5972 121.772 86.993C122.547 86.3237 123.521 86.0704 124.525 86.0704H224.475C225.479 86.0704 226.453 86.3237 227.228 86.993C227.928 87.5972 228.319 88.4134 228.501 89.2979L244.415 116.792C244.999 117.751 245.145 118.82 244.856 119.904C244.571 120.969 243.94 121.827 242.999 122.405L242.979 122.417ZM243.185 117.524L227.138 89.799C226.898 88.2668 226.011 87.5006 224.475 87.5006H124.525C122.989 87.5006 122.102 88.2668 121.862 89.799L105.815 117.524C105.431 118.146 105.335 118.816 105.527 119.535C105.719 120.253 106.151 120.804 106.823 121.187C107.446 121.57 108.118 121.665 108.837 121.474C109.557 121.282 110.109 120.851 110.493 120.181L126.324 92.8875H222.748L238.507 120.181C238.891 120.851 239.443 121.282 240.163 121.474C240.882 121.665 241.578 121.57 242.249 121.187C242.873 120.804 243.281 120.253 243.473 119.535C243.665 118.816 243.569 118.146 243.185 117.524ZM211.079 59.1551C211.555 59.8563 211.803 60.649 211.803 61.4999C211.803 62.6134 211.377 63.5955 210.592 64.3792C209.807 65.1629 208.823 65.5877 207.709 65.5877H141.363C140.228 65.5877 139.213 65.1824 138.408 64.3792C137.623 63.5955 137.197 62.6134 137.197 61.4999C137.197 60.6917 137.399 59.9212 137.841 59.2403L170.919 2.10867L170.921 2.10522C171.486 1.11917 172.345 0.43754 173.448 0.143908C174.537 -0.145967 175.611 0.00164581 176.574 0.590693C177.26 1.00297 177.803 1.56932 178.169 2.28007L211.079 59.1551ZM209.868 59.9198C210.204 60.3986 210.372 60.9253 210.372 61.4999C210.372 62.2182 210.108 62.8407 209.58 63.3674C209.052 63.8941 208.429 64.1575 207.709 64.1575H141.363C140.595 64.1575 139.948 63.8941 139.42 63.3674C138.892 62.8407 138.628 62.2182 138.628 61.4999C138.628 60.9253 138.772 60.4226 139.06 59.9916L172.161 2.81879C172.545 2.14842 173.097 1.71747 173.816 1.52594C174.536 1.33441 175.208 1.43017 175.831 1.81324C176.311 2.10054 176.671 2.48361 176.911 2.96244L209.868 59.9198ZM203.032 58.7706L174.536 9.49853L145.968 58.7706H203.032ZM148.452 57.3404H200.551L174.534 12.3545L148.452 57.3404Z" fill="url(#paint1_linear_502_2557)"/>
<path d="M9.3 200.1H26.2L44.5 239.8H43.5L61.8 200.1H78.1V265H66.2V213.7H68L47.8 257.9H40.1L20 213.9H21.1V265H9.3V200.1ZM104.602 207.6C102.302 207.6 100.502 207 99.2023 205.8C97.9357 204.567 97.3023 202.867 97.3023 200.7C97.3023 198.6 97.9357 196.933 99.2023 195.7C100.502 194.433 102.302 193.8 104.602 193.8C106.869 193.8 108.652 194.433 109.952 195.7C111.252 196.933 111.902 198.6 111.902 200.7C111.902 202.867 111.252 204.567 109.952 205.8C108.652 207 106.869 207.6 104.602 207.6ZM98.7023 265V216.3H110.502V265H98.7023ZM164.815 265V236.6C164.815 233 163.948 230.283 162.215 228.45C160.482 226.617 158.215 225.7 155.415 225.7C153.048 225.7 150.948 226.35 149.115 227.65C147.315 228.95 145.898 230.917 144.865 233.55C143.832 236.15 143.315 239.4 143.315 243.3H139.415C139.415 237 140.198 231.767 141.765 227.6C143.332 223.4 145.548 220.267 148.415 218.2C151.282 216.133 154.648 215.1 158.515 215.1C162.515 215.1 165.848 216 168.515 217.8C171.215 219.567 173.232 222.067 174.565 225.3C175.932 228.533 176.615 232.3 176.615 236.6V265H164.815ZM131.515 265V216.5H141.815L143.315 226.1V265H131.515ZM211.22 266.4C208.353 266.4 205.72 265.867 203.32 264.8C200.953 263.733 199.053 262.1 197.62 259.9C196.22 257.7 195.52 254.9 195.52 251.5V203.6H207.32V251.1C207.32 255.1 209.22 257.1 213.02 257.1C214.186 257.1 215.353 256.967 216.52 256.7C217.686 256.433 219.02 256.033 220.52 255.5L222.22 263.8C220.353 264.533 218.536 265.15 216.77 265.65C215.003 266.15 213.153 266.4 211.22 266.4ZM188.72 224.3V216.5H220.52V224.3H188.72ZM266.173 265L264.673 253.2V233.7C264.673 230.3 263.973 227.783 262.573 226.15C261.206 224.517 258.873 223.7 255.573 223.7C253.673 223.7 252.023 223.983 250.623 224.55C249.223 225.117 248.139 225.933 247.373 227C246.639 228.033 246.273 229.3 246.273 230.8H233.373C233.373 227.133 234.256 224.15 236.023 221.85C237.789 219.517 240.323 217.817 243.623 216.75C246.956 215.65 250.939 215.1 255.573 215.1C259.773 215.1 263.439 215.783 266.573 217.15C269.706 218.483 272.139 220.55 273.873 223.35C275.606 226.15 276.473 229.733 276.473 234.1V265H266.173ZM250.273 266.4C246.106 266.4 242.623 265.683 239.823 264.25C237.056 262.783 234.973 260.867 233.573 258.5C232.173 256.133 231.473 253.567 231.473 250.8C231.473 247.733 232.273 245.167 233.873 243.1C235.506 241 237.806 239.433 240.773 238.4C243.739 237.333 247.239 236.8 251.273 236.8C253.906 236.8 256.389 237 258.723 237.4C261.089 237.8 263.439 238.333 265.773 239V245.9C263.939 245.3 261.939 244.833 259.773 244.5C257.606 244.167 255.573 244 253.673 244C250.873 244 248.573 244.517 246.773 245.55C244.973 246.583 244.073 248.333 244.073 250.8C244.073 252.6 244.806 254.15 246.273 255.45C247.739 256.75 250.073 257.4 253.273 257.4C255.706 257.4 257.773 256.867 259.473 255.8C261.173 254.733 262.456 253.4 263.323 251.8C264.223 250.2 264.673 248.6 264.673 247H267.473C267.473 250.5 266.823 253.733 265.523 256.7C264.223 259.633 262.289 261.983 259.723 263.75C257.189 265.517 254.039 266.4 250.273 266.4ZM294.769 265V196.4H306.569V265H294.769ZM326.238 265V196.4H338.038V265H326.238Z" fill="black"/>
<defs>
<linearGradient id="paint0_linear_502_2557" x1="174.5" y1="0" x2="245" y2="123" gradientUnits="userSpaceOnUse">
<stop/>
<stop offset="1" stop-color="#6726E9"/>
</linearGradient>
<linearGradient id="paint1_linear_502_2557" x1="174.5" y1="0" x2="245" y2="123" gradientUnits="userSpaceOnUse">
<stop/>
<stop offset="1" stop-color="#6726E9"/>
</linearGradient>
</defs>
</svg>
