<svg width="30" height="28" viewBox="0 0 30 28" fill="none" xmlns="http://www.w3.org/2000/svg">
<path d="M27 1L16 9L18.0342 4.28011L27 1Z" fill="#E2761B" stroke="#E2761B" stroke-linecap="round" stroke-linejoin="round"/>
<path d="M2.12993 1L12.7513 9.1978L10.8681 4.32967L2.12993 1ZM22.996 19.8242L20.1443 24.2857L26.2459 26L28 19.9231L22.996 19.8242ZM1 19.9231L2.74332 26L8.84496 24.2857L5.99322 19.8242L1 19.9231Z" fill="#E4761B" stroke="#E4761B" stroke-linecap="round" stroke-linejoin="round"/>
<path d="M8.65734 12.625L7 15.1146L12.9056 15.375L12.6958 9.07292L8.65734 12.625ZM20.3322 12.625L16.2413 9L16.1049 15.375L22 15.1146L20.3322 12.625ZM8.99301 24L12.5385 22.2812L9.47552 19.9062L8.99301 24ZM16.451 22.2812L20.007 24L19.514 19.9062L16.451 22.2812Z" fill="#E4761B" stroke="#E4761B" stroke-linecap="round" stroke-linejoin="round"/>
<path d="M20 24.1019L16.4486 22L16.7314 24.8153L16.7 26L20 24.1019ZM9 24.1019L12.3 26L12.279 24.8153L12.541 22L9 24.1019Z" fill="#D7C1B3" stroke="#D7C1B3" stroke-linecap="round" stroke-linejoin="round"/>
<path d="M12.1848 19L9 18.046L11.2474 17L12.1848 19ZM16.8039 19L17.7413 17L20 18.046L16.8039 19Z" fill="#233447" stroke="#233447" stroke-linecap="round" stroke-linejoin="round"/>
<path d="M9.01899 24L9.56582 19.7163L6 19.8113L9.01899 24ZM20.4342 19.7163L20.981 24L24 19.8113L20.4342 19.7163ZM23.1456 15L16.743 15.2638L17.3354 18.313L18.281 16.4771L20.5595 17.4373L23.1456 15ZM9.4519 17.4373L11.7304 16.4771L12.6646 18.313L13.2684 15.2638L6.85443 15L9.4519 17.4373Z" fill="#CD6116" stroke="#CD6116" stroke-linecap="round" stroke-linejoin="round"/>
<path d="M7 15L9.47552 19.916L9.39161 17.4687L7 15ZM19.6189 17.4687L19.514 19.916L22 15L19.6189 17.4687ZM12.9056 15.2672L12.3497 18.3557L13.042 22L13.1993 17.2015L12.9056 15.2672ZM16.1049 15.2672L15.8217 17.1908L15.9476 22L16.6503 18.3557L16.1049 15.2672Z" fill="#E4751F" stroke="#E4751F" stroke-linecap="round" stroke-linejoin="round"/>
<path d="M16.8072 17.9081L16.0513 21.639L16.5928 22L19.8872 19.5055L20 17L16.8072 17.9081ZM9 17L9.09026 19.5055L12.3846 22L12.9262 21.639L12.1815 17.9081L9 17Z" fill="#F6851B" stroke="#F6851B" stroke-linecap="round" stroke-linejoin="round"/>
<path d="M16.7 25.8245L16.7314 24.6857L16.4695 24.4163H12.52L12.279 24.6857L12.3 25.8245L9 24L10.1524 25.102L12.4886 27H16.501L18.8476 25.102L20 24L16.7 25.8245Z" fill="#C0AD9E" stroke="#C0AD9E" stroke-linecap="round" stroke-linejoin="round"/>
<path d="M16.6824 22.3898L16.1176 22H12.8588L12.2941 22.3898L12 25L12.2706 24.7402H16.7059L17 25L16.6824 22.3898Z" fill="#161616" stroke="#161616" stroke-linecap="round" stroke-linejoin="round"/>
<path d="M28.0667 9.67034L29 5.17542L27.6055 1L17.0424 8.8661L21.1051 12.3144L26.8478 14L28.1216 12.5127L27.5725 12.1161L28.451 11.3119L27.7702 10.7831L28.6486 10.111L28.0667 9.67034ZM1 5.17542L1.93333 9.67034L1.34039 10.111L2.21882 10.7831L1.54902 11.3119L2.42745 12.1161L1.87843 12.5127L3.14118 14L8.88392 12.3144L12.9467 8.8661L2.38353 1L1 5.17542Z" fill="#763D16" stroke="#763D16" stroke-linecap="round" stroke-linejoin="round"/>
<path d="M26.106 13.7565L20.4779 12.0544L22.1889 14.7132L19.6385 19.8307L22.996 19.7862H28L26.106 13.7565ZM8.5006 12.0544L2.87246 13.7565L1 19.7862H5.99322L9.33998 19.8307L6.80032 14.7132L8.5006 12.0544ZM16.1411 14.9913L16.4962 8.57231L18.1319 4H10.8681L12.4823 8.57231L12.8589 14.9913L12.988 17.0161L12.9988 22H15.9797L16.0012 17.0161L16.1411 14.9913Z" fill="#F6851B" stroke="#F6851B" stroke-linecap="round" stroke-linejoin="round"/>
</svg>
